HIERARCHY
ROOT Hips
{
	OFFSET	0.000000	0.000000	0.000000
	CHANNELS 6 Xposition Yposition Zposition Zrotation Xrotation Yrotation
	JOINT LeftHip
	{
		OFFSET	4.740440	-3.195970	-0.322709
		CHANNELS 3 Zrotation Xrotation Yrotation
		JOINT LeftKnee
		{
			OFFSET	-1.605680	-15.592300	1.005510
			CHANNELS 3 Zrotation Xrotation Yrotation
			JOINT LeftAnkle
			{
				OFFSET	-0.632401	-16.421000	-1.413730
				CHANNELS 3 Zrotation Xrotation Yrotation
				End Site
				{
					OFFSET	0.008423	-3.933000	-2.776750
				}
			}
		}
	}
	JOINT RightHip
	{
		OFFSET	-4.740440	-3.195970	-0.322709
		CHANNELS 3 Zrotation Xrotation Yrotation
		JOINT RightKnee
		{
			OFFSET	1.605680	-15.592300	1.005510
			CHANNELS 3 Zrotation Xrotation Yrotation
			JOINT RightAnkle
			{
				OFFSET	0.632401	-16.421000	-1.413730
				CHANNELS 3 Zrotation Xrotation Yrotation
				End Site
				{
					OFFSET	-0.008423	-3.933000	-2.776750
				}
			}
		}
	}
	JOINT Chest
	{
		OFFSET	0.000000	3.468200	0.078401
		CHANNELS 3 Zrotation Xrotation Yrotation
		JOINT LeftCollar
		{
			OFFSET	3.857650	15.070700	-0.011583
			CHANNELS 3 Zrotation Xrotation Yrotation
			JOINT LeftShoulder
			{
				OFFSET	3.979720	-1.940530	-0.165223
				CHANNELS 3 Zrotation Xrotation Yrotation
				JOINT LeftElbow
				{
					OFFSET	0.615844	-10.986600	-0.673886
					CHANNELS 3 Zrotation Xrotation Yrotation
					JOINT LeftWrist
					{
						OFFSET	0.826843	-10.854500	1.034220
						CHANNELS 3 Zrotation Xrotation Yrotation
						End Site
						{
							OFFSET	-1.679080	-8.456540	0.936217
						}
					}
				}
			}
		}
		JOINT RightCollar
		{
			OFFSET	-3.857650	15.070700	-0.011583
			CHANNELS 3 Zrotation Xrotation Yrotation
			JOINT RightShoulder
			{
				OFFSET	-3.979720	-1.940530	-0.165223
				CHANNELS 3 Zrotation Xrotation Yrotation
				JOINT RightElbow
				{
					OFFSET	-0.615845	-10.986600	-0.673886
					CHANNELS 3 Zrotation Xrotation Yrotation
					JOINT RightWrist
					{
						OFFSET	-0.826843	-10.854500	1.034220
						CHANNELS 3 Zrotation Xrotation Yrotation
						End Site
						{
							OFFSET	1.679080	-8.456540	0.936217
						}
					}
				}
			}
		}
		JOINT Neck
		{
			OFFSET	0.000000	15.101400	0.055730
			CHANNELS 3 Zrotation Xrotation Yrotation
			JOINT Head
			{
				OFFSET	0.000000	4.185120	1.488260
				CHANNELS 3 Zrotation Xrotation Yrotation
				End Site
				{
					OFFSET	0.000000	7.773420	-0.106016
				}
			}
		}
	}
}
MOTION
Frames:     21
Frame Time: 0.016667
1.050030	37.694843	35.554268	0.657170	-19.458582	-2.321867	0.548950	3.038400	5.208687	-8.379849	21.391169	10.435592	6.390630	-7.665380	-1.772948	-9.532572	-3.432786	1.293635	15.824816	63.104042	-10.863332	0.145828	-3.656186	0.917303	-4.222414	17.797981	-1.767172	5.673472	0.023859	-6.088595	35.267570	-9.266831	16.910866	-62.634220	-60.467152	-43.742718	18.272308	25.774281	2.235223	-4.191674	-1.729250	11.371117	-42.572056	-9.408525	-16.915926	44.233063	-56.135616	23.233669	-10.213367	17.672279	-11.149858	1.157504	2.593613	-0.225267	2.379482	17.946518	-1.604836	
1.107953	37.817619	36.170189	0.915268	-19.646128	-1.221681	0.040360	4.823855	4.618271	-7.916742	20.321098	10.232932	6.231184	-8.173702	-2.162374	-8.993375	-5.620265	1.151878	14.236774	60.376415	-11.167639	0.420735	-0.365242	1.226652	-4.114799	18.120777	-2.632586	5.780015	-0.212353	-6.396673	35.335537	-9.357405	16.902958	-62.194626	-60.318527	-43.317646	18.128447	25.797087	2.249367	-4.190476	-1.794312	11.167943	-42.619232	-9.365019	-16.756222	44.029560	-56.273235	22.990252	-10.162823	17.692265	-11.204384	1.232056	2.405569	-0.409357	2.621930	17.644644	-1.713533	
1.132997	37.855751	36.377014	1.007942	-19.649258	-0.888496	-0.130394	5.375402	4.459477	-7.777804	19.939610	10.160160	6.198101	-8.330058	-2.273239	-8.776048	-6.322004	1.092274	13.589954	59.227959	-11.166343	0.283270	-0.423795	1.346180	-4.085945	18.196964	-2.782146	5.812998	-0.348780	-6.579557	35.400684	-9.366363	16.905087	-62.208710	-60.170040	-43.474308	18.094347	25.844845	2.405373	-4.210073	-1.835307	10.991587	-42.646923	-9.325486	-16.694559	44.021515	-56.342602	22.937059	-10.153399	17.725767	-11.206766	1.238624	2.236912	-0.566642	2.710615	17.639231	-1.767064	
1.165952	37.968536	36.992355	1.166332	-19.553921	-0.009701	-0.411441	6.859882	3.891357	-7.447535	18.885649	10.039886	6.073412	-8.809374	-2.562837	-8.077917	-8.182472	0.644392	11.254674	55.110710	-10.642565	0.215596	-2.596210	2.210699	-3.986165	18.174339	-3.478611	6.018559	-0.599700	-6.757658	35.640057	-9.398799	16.814020	-62.207581	-59.961987	-43.299160	18.113708	25.969912	2.077761	-4.191401	-1.837049	10.820979	-42.751175	-9.173480	-16.466822	43.979424	-56.569023	22.777250	-10.137321	17.751945	-11.352084	1.309698	2.100807	-0.722804	2.875390	17.608549	-1.765952	
1.169443	38.002945	37.206848	1.200038	-19.452175	0.251618	-0.455104	7.276599	3.676972	-7.389472	18.564682	10.029881	6.084657	-8.984961	-2.642490	-7.864612	-8.744511	0.423089	9.673077	49.083141	-9.763847	-0.079271	3.973078	2.298846	-3.953982	18.088675	-3.678390	6.119353	-0.653452	-6.825321	35.725861	-9.421094	16.787596	-62.243446	-59.838959	-43.488411	18.046415	26.027960	2.458902	-4.174727	-1.829676	10.757354	-42.786835	-9.125824	-16.386473	43.951157	-56.643124	22.721632	-10.102177	17.759687	-11.423510	1.336330	2.095544	-0.786346	2.877073	17.610241	-1.766019	
1.184496	38.092731	37.846558	1.312004	-19.002666	0.874890	-0.617122	8.360205	3.208022	-7.169849	17.651979	9.960770	5.980137	-9.546576	-2.794093	-7.225420	-10.285301	-0.164511	8.650366	48.004078	-9.728585	0.231109	-0.304763	2.989175	-3.926780	17.667423	-4.155370	6.312979	-0.847159	-6.996446	36.117134	-9.362826	16.701242	-62.464081	-59.707630	-43.505665	18.249168	26.206503	2.191236	-4.089270	-1.818218	10.612626	-42.979816	-8.990474	-16.184938	43.954769	-56.849808	22.631205	-9.966965	17.778147	-11.596170	1.479111	2.096405	-0.860737	2.877858	17.729383	-1.807746	
1.184345	38.115250	38.067265	1.357358	-18.841541	1.021451	-0.673397	8.719481	3.191331	-7.088797	17.383738	9.871561	5.976954	-9.760935	-2.836751	-7.022328	-10.734227	-0.331097	7.672934	41.352962	-9.459063	0.261757	2.346082	3.655088	-3.929396	17.516001	-4.298884	6.345240	-0.896070	-6.998846	36.291710	-9.346598	16.629429	-62.647568	-59.646049	-43.849094	18.274845	26.354832	2.370883	-4.085779	-1.818672	10.608126	-43.036499	-8.991589	-16.150486	43.932236	-56.872852	22.605965	-9.938230	17.792358	-11.659612	1.500459	2.102346	-0.835897	2.894412	17.773766	-1.819715	
1.168742	38.164677	38.744698	1.538811	-18.380726	1.348181	-0.828567	9.844673	3.397800	-6.907812	16.661175	9.416236	5.947615	-10.532183	-2.907997	-6.394911	-11.811104	-0.717089	6.576282	39.682095	-9.284533	1.538550	-1.438101	4.287683	-3.968817	17.132235	-4.569372	6.417352	-1.022216	-7.063487	36.779472	-9.310919	16.519674	-62.922852	-59.653069	-43.803986	18.326250	26.512300	2.033725	-4.129833	-1.871601	10.546269	-43.196178	-9.019799	-16.055645	43.847008	-56.921566	22.496334	-9.876164	17.841740	-11.847159	1.498074	2.056979	-0.814368	2.859986	17.979639	-1.854052	
1.158221	38.225113	39.233227	1.637735	-18.202141	1.444137	-0.870592	11.148627	3.542058	-6.918131	15.518720	9.091495	5.899476	-10.816833	-2.931650	-6.210597	-12.078076	-0.833676	6.145192	37.432137	-9.225317	2.558408	-3.029346	4.732339	-4.017297	16.984884	-4.645897	6.442067	-1.049640	-7.084212	36.905067	-9.300649	16.501276	-62.989029	-59.600613	-43.919762	18.263256	26.539743	2.124963	-4.153259	-1.896565	10.532710	-43.258820	-8.991270	-16.042143	43.893261	-56.949852	22.517702	-9.847924	17.850796	-11.898824	1.477643	2.049081	-0.805742	2.841080	18.024878	-1.865019	
1.154367	38.165958	39.658226	1.993293	-17.698439	1.650431	-1.179034	11.110541	3.415903	-6.955549	16.006197	9.418322	5.752388	-11.747399	-3.136574	-5.670625	-12.688157	-1.105849	4.958772	30.469641	-9.401367	2.147635	2.032526	5.246939	-4.257579	16.564270	-4.772455	6.506707	-1.098945	-7.114921	37.240997	-9.243751	16.540024	-63.354778	-59.614117	-43.984653	18.200924	26.594296	2.246039	-4.217476	-1.964939	10.495488	-43.326908	-8.954782	-16.026972	44.021069	-57.066414	22.693832	-9.763645	17.959051	-12.044572	1.408818	2.100595	-0.825190	2.797205	18.118858	-1.833133	
1.150155	38.172764	40.016861	2.139150	-17.500320	1.702715	-1.264397	11.792444	3.239092	-7.080136	15.492941	9.594516	5.686326	-12.071910	-3.174679	-5.501625	-12.859682	-1.264883	4.523056	28.088661	-9.445053	2.415028	2.388939	5.612407	-4.350189	16.405760	-4.817441	6.495604	-1.117022	-7.091361	37.307068	-9.220905	16.552938	-63.511429	-59.638905	-44.167725	18.139591	26.654413	2.314036	-4.257830	-2.003277	10.501077	-43.357662	-8.930986	-16.018068	44.159920	-57.175560	22.781939	-9.752361	18.031408	-12.043531	1.361090	2.168028	-0.829935	2.821650	18.074089	-1.791598	
1.146126	38.079628	40.616055	2.686660	-16.867828	1.854693	-1.746450	11.966977	2.986866	-7.244006	15.883700	10.152528	5.516397	-13.196842	-3.304488	-5.027351	-13.226163	-1.996887	3.152024	20.950792	-9.448548	3.263695	3.479834	6.647640	-4.838194	15.830302	-4.851283	6.536824	-1.111021	-7.075896	37.424519	-9.174327	16.581041	-63.788567	-59.676983	-44.255116	18.118889	26.662090	2.212109	-4.296486	-2.044350	10.478636	-43.406452	-8.839519	-16.011612	44.421940	-57.342285	22.960520	-9.723750	18.047058	-12.039328	1.318326	2.232892	-0.831321	2.884519	18.183870	-1.835038	
1.140607	38.070793	41.056141	2.885920	-16.640135	1.906480	-1.866314	12.777812	2.517619	-7.464330	15.279497	10.599037	5.439130	-13.614765	-3.305743	-4.848620	-13.350277	-2.352252	2.670842	18.692205	-9.370537	5.039643	0.661219	7.019260	-4.998149	15.617908	-4.860772	6.529771	-1.107620	-7.078663	37.408859	-9.191055	16.586096	-63.845554	-59.761364	-44.302681	18.083296	26.737797	2.160483	-4.329332	-2.054648	10.464098	-43.414600	-8.803587	-16.013567	44.549377	-57.424686	23.063036	-9.739928	18.065285	-12.021343	1.282882	2.281253	-0.847774	2.929188	18.187277	-1.846227	
1.136384	37.916298	41.741089	3.525981	-15.820759	2.146122	-2.402586	12.632028	1.991296	-7.725394	16.131292	11.287190	5.216475	-14.962257	-3.314021	-4.410022	-13.685922	-3.884049	1.394563	10.848826	-9.384892	5.161907	5.499044	8.007421	-5.530782	14.798414	-4.992939	6.532754	-1.036225	-7.078012	37.310745	-9.198508	16.635193	-63.987495	-59.859909	-44.475777	18.030254	26.821085	2.133971	-4.404201	-2.027716	10.440304	-43.427967	-8.744183	-16.018326	44.881481	-57.652679	23.332247	-9.727579	18.176550	-12.000677	1.199347	2.503238	-0.855421	2.975873	18.168119	-1.809674	
1.129253	37.861172	42.003696	3.726629	-15.599303	2.226572	-2.552776	12.711406	1.684289	-7.840124	16.365076	11.649011	5.123014	-15.415402	-3.304891	-4.194457	-13.764047	-4.500412	0.790370	9.276126	-9.222899	5.967279	6.039918	8.290557	-5.700983	14.565875	-5.040700	6.540664	-0.998719	-7.075546	37.327667	-9.192109	16.697527	-64.147675	-59.956944	-44.596249	17.968105	26.930943	2.100011	-4.424555	-2.006844	10.436335	-43.428749	-8.740769	-16.018650	44.956799	-57.711037	23.393272	-9.705297	18.197664	-12.002537	1.178284	2.570296	-0.824404	2.956430	18.216196	-1.831218	
1.137820	37.649605	42.727974	4.316360	-15.148670	2.386817	-3.065437	12.832216	0.995280	-8.128732	17.586090	12.659266	4.728343	-16.894966	-3.193185	-3.331347	-13.927753	-5.665466	-1.130827	6.728175	-8.701736	7.953692	7.136282	8.826682	-6.276769	13.919492	-5.029055	6.614146	-0.727397	-7.127476	37.272392	-9.208457	16.812927	-64.332108	-60.091766	-44.765980	17.853868	27.061394	2.108142	-4.443754	-1.781732	10.392375	-43.423748	-8.740451	-16.035625	45.193974	-57.872501	23.597824	-9.658082	18.377407	-12.007875	1.176776	2.727640	-0.681636	2.937743	18.605339	-1.991087	
1.150244	37.578587	43.108906	4.474168	-15.094912	2.428220	-3.129199	13.335326	-0.014846	-8.551729	17.602463	13.720530	4.601976	-17.432602	-3.067876	-2.963891	-13.949807	-5.814972	-1.862860	5.936552	-8.704444	9.338198	7.219143	9.655846	-6.457991	13.740368	-4.974382	6.651777	-0.585989	-7.187808	37.256397	-9.214952	16.867235	-64.356140	-60.309376	-44.798935	17.692966	27.219625	2.112575	-4.429374	-1.643982	10.349285	-43.399345	-8.791423	-16.073389	45.225739	-57.868866	23.653343	-9.630237	18.435127	-12.015775	1.204362	2.782844	-0.648594	2.944036	18.838202	-2.052135	
1.122097	37.324131	43.892292	4.875859	-15.089182	2.799659	-3.263278	13.612031	-0.486194	-8.934006	19.664843	14.166775	4.178827	-18.905918	-2.519508	-2.401370	-13.971611	-5.741325	-2.943883	5.626410	-7.442850	8.368504	7.534636	9.049756	-6.883595	13.458018	-5.014901	6.742250	-0.279879	-7.412275	37.238773	-9.204346	17.083630	-64.498352	-60.479988	-44.973507	17.442562	27.441500	2.058712	-4.302946	-1.476148	10.123455	-43.273708	-8.928576	-16.141964	45.405727	-57.622128	23.903591	-9.617684	18.523447	-11.988738	1.320467	2.717606	-0.694257	2.925039	19.738930	-2.129200	
1.091264	37.077824	44.645805	4.968544	-15.088447	2.976986	-3.011351	13.930827	-0.360589	-9.374971	21.837423	14.205703	3.759544	-20.899553	-2.535027	-2.463968	-14.038106	-5.347555	-2.470976	6.980938	-6.588075	8.096522	6.913015	8.079584	-6.982472	13.355009	-5.078421	6.775561	-0.163705	-7.506576	37.209229	-9.115303	17.278755	-64.743355	-60.719978	-45.277180	17.187075	27.682056	1.981090	-4.234453	-1.426610	10.039032	-43.232105	-8.968614	-16.164059	45.445709	-57.468761	23.946768	-9.624110	18.531080	-11.954326	1.366092	2.736055	-0.764739	2.929887	19.989977	-2.110255	
1.077439	37.106056	45.096386	5.258763	-15.081941	3.661683	-2.960907	14.174621	-0.713549	-9.536563	22.526733	14.052486	3.260359	-19.899206	-2.275192	-2.889117	-14.143685	-2.893339	-1.790408	8.115550	-9.043352	8.242215	6.588225	7.680758	-7.154463	13.057421	-5.590247	6.772498	0.205366	-7.651387	37.211403	-9.094252	17.399549	-64.796669	-61.049461	-45.356888	16.896824	27.945686	1.920733	-4.123301	-1.228341	9.970152	-43.056427	-9.021223	-16.151604	45.662399	-57.089329	24.152386	-9.691727	18.628687	-11.846708	1.391183	2.807781	-0.833220	2.914892	20.489792	-2.013618	
1.072873	37.060146	45.432755	5.336316	-15.149008	3.916454	-2.763330	14.474597	-0.600175	-9.714943	23.219282	13.808851	2.937728	-19.943117	-2.345308	-2.984906	-14.022925	-2.252566	-1.350576	9.053675	-9.335696	7.275345	8.830338	8.867717	-7.127897	13.049768	-5.709960	6.723415	0.275847	-7.764227	37.203995	-9.078685	17.474972	-64.792313	-61.364632	-45.375931	16.616192	28.178434	1.883860	-4.134751	-1.193456	9.858826	-43.014099	-9.033067	-16.108288	45.777798	-56.952946	24.207731	-9.748103	18.673754	-11.787896	1.353758	2.762032	-0.936553	2.881379	20.628370	-1.979579	
